<?xml version="1.0" encoding="UTF-8"?>
<svg id="Layer_2" data-name="Layer 2" xmlns="http://www.w3.org/2000/svg" viewBox="0 0 918.87 554.75">
  <defs>
    <style>
      .cls-1, .cls-2 {
        fill: #312783;
      }

      .cls-3 {
        letter-spacing: .12em;
      }

      .cls-4 {
        letter-spacing: .03em;
      }

      .cls-5 {
        letter-spacing: .01em;
      }

      .cls-2 {
        font-family: ArialMT, Arial;
        font-size: 160.77px;
        stroke: #312783;
        stroke-miterlimit: 10;
        stroke-width: 2px;
      }
    </style>
  </defs>
  <g id="Layer_1-2" data-name="Layer 1">
    <path class="cls-1" d="m451.84,0c-123.2,0-227.88,80.73-263.95,192.06h26.6c5.92-16.5,13.57-32.38,22.83-47.3.76-1.22,2.07-1.89,3.41-1.89.69,0,1.4.18,2.04.55,15.15,9,32.62,17.03,51.92,23.86,1.93.68,3.04,2.71,2.56,4.72-1.59,6.6-3.04,13.29-4.31,20.06h25.9c.84-4.09,1.75-8.15,2.73-12.18.26-1.04.91-1.94,1.84-2.48.63-.39,1.34-.58,2.06-.58.33,0,.68.05,1,.13,33.77,8.8,69.94,13.88,107.53,15.11h35.68c37.63-1.23,73.8-6.31,107.53-15.09.33-.09.68-.14,1.02-.14.72,0,1.43.21,2.06.58.91.55,1.58,1.44,1.83,2.5.98,4.01,1.89,8.06,2.73,12.15h25.9c-1.27-6.78-2.71-13.47-4.31-20.06-.48-1.99.63-4.03,2.56-4.71,19.28-6.84,36.74-14.87,51.91-23.88.64-.37,1.35-.55,2.04-.55,1.34,0,2.65.67,3.41,1.89,9.27,14.92,16.93,30.82,22.85,47.32h26.58C679.71,80.73,575.04,0,451.84,0Zm-145.6,140.59c-.35,1.02-1.09,1.86-2.06,2.33-.55.27-1.14.4-1.75.4-.45,0-.91-.08-1.35-.23-15.86-5.74-30.34-12.39-43.06-19.76-1.02-.58-1.72-1.59-1.93-2.75-.21-1.16.1-2.34.85-3.25,24.27-29.5,55.47-53.5,90.21-69.43.54-.24,1.11-.36,1.66-.36,1.21,0,2.39.55,3.18,1.56,1.13,1.47,1.11,3.54-.06,4.98-18.85,23.19-34.22,52.29-45.68,86.52Zm133.08,22.44c0,1.09-.44,2.12-1.22,2.88-.75.73-1.75,1.13-2.79,1.13h-.12c-35.69-1.13-69.84-5.84-101.53-13.98-1.08-.28-1.99-1-2.52-1.98-.54-.98-.63-2.15-.27-3.2,22.65-66.02,61.36-111.17,103.55-120.77.3-.06.59-.1.89-.1.9,0,1.79.31,2.51.87.94.76,1.5,1.92,1.5,3.14v132.01Zm133.24-11.94c-.53.99-1.44,1.7-2.53,1.98-31.65,8.14-65.81,12.84-101.53,13.97h-.12c-1.04,0-2.04-.4-2.79-1.13-.78-.76-1.22-1.79-1.22-2.88V31.02c0-1.22.57-2.38,1.5-3.14.72-.57,1.61-.87,2.51-.87.3,0,.59.04.89.1,42.2,9.59,80.91,54.75,103.55,120.78.36,1.07.27,2.23-.26,3.2Zm75.03-30.52c-.22,1.16-.93,2.16-1.94,2.75-12.81,7.43-27.29,14.08-43.02,19.78-.45.17-.91.24-1.36.24-.6,0-1.2-.13-1.75-.4-.98-.48-1.71-1.31-2.06-2.33-11.46-34.24-26.84-63.35-45.7-86.56-1.17-1.44-1.2-3.51-.06-4.98.78-1,1.97-1.56,3.18-1.56.55,0,1.12.12,1.66.36,34.75,15.91,65.94,39.92,90.21,69.43.75.9,1.05,2.1.85,3.25Zm41.65,242.05c-5.93,16.53-13.59,32.44-22.88,47.39-.76,1.22-2.07,1.89-3.41,1.89-.69,0-1.4-.18-2.04-.57-15.18-9.02-32.64-17.05-51.91-23.87-1.93-.68-3.04-2.71-2.56-4.71,1.59-6.62,3.04-13.34,4.32-20.14h-25.9c-.84,4.12-1.76,8.19-2.74,12.23-.24,1.04-.91,1.94-1.83,2.5-.63.37-1.34.57-2.06.57-.33,0-.68-.04-1.02-.13-34.17-8.9-70.84-13.99-108.96-15.14-.13,0-.27-.01-.4-.03h-32.02c-.13.01-.27.03-.4.03-38.11,1.14-74.76,6.25-108.96,15.15-.32.09-.67.13-1,.13-.72,0-1.43-.19-2.06-.57-.93-.55-1.58-1.45-1.84-2.5-.98-4.05-1.9-8.13-2.74-12.24h-25.9c1.29,6.8,2.73,13.52,4.32,20.14.48,1.99-.63,4.03-2.56,4.72-19.29,6.82-36.76,14.84-51.92,23.84-.64.39-1.35.57-2.04.57-1.34,0-2.65-.67-3.41-1.89-9.27-14.94-16.93-30.85-22.85-47.38h-26.6c36.05,111.37,140.75,192.12,263.98,192.12s227.93-80.76,263.98-192.12h-26.58Zm-337.25,143.04c-.78,1-1.97,1.56-3.18,1.56-.55,0-1.12-.13-1.66-.37-34.74-15.91-65.94-39.92-90.21-69.41-.75-.91-1.05-2.11-.85-3.27.21-1.16.91-2.16,1.93-2.75,12.73-7.37,27.21-14.01,43.06-19.74.44-.15.9-.23,1.35-.23.6,0,1.2.13,1.75.4.96.46,1.71,1.31,2.06,2.33,11.46,34.21,26.83,63.33,45.68,86.52,1.17,1.44,1.2,3.5.06,4.98Zm87.33,18.07c0,1.22-.57,2.37-1.5,3.13-.72.58-1.61.87-2.51.87-.3,0-.59-.03-.89-.09-42.19-9.61-80.9-54.75-103.55-120.77-.36-1.07-.27-2.22.27-3.2.53-.99,1.44-1.7,2.52-1.98,31.66-8.14,65.82-12.85,101.53-13.98h.12c1.04,0,2.04.41,2.79,1.13.78.76,1.22,1.79,1.22,2.88v132.01Zm29.95,3.91c-.3.06-.59.09-.89.09-.9,0-1.79-.3-2.51-.87-.94-.76-1.5-1.9-1.5-3.13v-132.02c0-1.08.44-2.12,1.22-2.87.75-.73,1.75-1.13,2.79-1.13h.12c35.69,1.12,69.85,5.81,101.53,13.97,1.09.27,2.01.99,2.53,1.97.53.99.62,2.15.26,3.2-22.65,66.04-61.36,111.19-103.55,120.79Zm177.47-90.21c-24.27,29.49-55.46,53.5-90.21,69.41-.54.24-1.11.37-1.66.37-1.21,0-2.39-.55-3.18-1.56-1.13-1.48-1.11-3.54.06-4.98,18.85-23.21,34.24-52.33,45.7-86.56.35-1.02,1.08-1.86,2.06-2.33.55-.27,1.14-.4,1.75-.4.45,0,.91.08,1.36.23,15.69,5.68,30.17,12.35,43.02,19.79,1.02.58,1.72,1.59,1.94,2.75.21,1.16-.1,2.34-.85,3.25Z"/>
    <text class="cls-2" transform="translate(1 334.05)"><tspan class="cls-3" x="0" y="0">i</tspan><tspan class="cls-5" x="55.81" y="0">T</tspan><tspan class="cls-3" x="156.29" y="0">each</tspan><tspan class="cls-4" x="585.29" y="0">Y</tspan><tspan class="cls-3" x="697.86" y="0">ou</tspan></text>
  </g>
</svg>